<svg width="131" height="43" viewBox="0 0 131 43" fill="none" xmlns="http://www.w3.org/2000/svg">
<rect width="131" height="43" rx="21.5" fill="url(#paint0_linear_21097_35342)"/>
<path d="M34.2443 27.9976C34.6586 27.9976 34.9943 28.3334 34.9943 28.7476C34.9943 29.1273 34.7122 29.4411 34.3461 29.4907L34.2443 29.4976H23.7497C23.3355 29.4976 22.9997 29.1618 22.9997 28.7476C22.9997 28.3679 23.2818 28.0541 23.6479 28.0044L23.7497 27.9976H34.2443ZM29.0033 13.4994C29.383 13.4994 29.6968 13.7815 29.7465 14.1476L29.7533 14.2494L29.7527 24.4424L32.7189 21.4718C32.9849 21.2053 33.4016 21.1807 33.6954 21.3983L33.7796 21.4708C34.0461 21.7369 34.0707 22.1535 33.8531 22.4473L33.7806 22.5315L29.5377 26.7821L29.4671 26.8446L29.3761 26.9032L29.3397 26.9244L29.2485 26.9623L29.128 26.9924L29.0588 27.0003L28.9987 27.0023C28.9486 27.0023 28.8977 26.9968 28.848 26.9862L28.7671 26.9631C28.6711 26.9321 28.584 26.8818 28.5098 26.8171L24.2203 22.5324C23.9272 22.2397 23.9268 21.7648 24.2195 21.4717C24.4856 21.2052 24.9022 21.1807 25.196 21.3984L25.2802 21.4709L28.2527 24.4384L28.2533 14.2494C28.2533 13.8352 28.5891 13.4994 29.0033 13.4994Z" fill="#FCFCFC"/>
<path d="M47.9949 17.375V15.8636H57.0005V17.375H53.3699V27.5H51.6199V17.375H47.9949ZM60.2865 27.6932C59.7335 27.6932 59.2335 27.5909 58.7865 27.3864C58.3395 27.178 57.9854 26.8769 57.724 26.483C57.4664 26.089 57.3376 25.6061 57.3376 25.0341C57.3376 24.5417 57.4323 24.1364 57.6217 23.8182C57.8111 23.5 58.0668 23.2481 58.3888 23.0625C58.7107 22.8769 59.0706 22.7367 59.4683 22.642C59.8661 22.5473 60.2714 22.4754 60.6842 22.4261C61.207 22.3655 61.6312 22.3163 61.957 22.2784C62.2827 22.2367 62.5195 22.1705 62.6672 22.0795C62.8149 21.9886 62.8888 21.8409 62.8888 21.6364V21.5966C62.8888 21.1004 62.7486 20.7159 62.4683 20.4432C62.1918 20.1705 61.7789 20.0341 61.2297 20.0341C60.6577 20.0341 60.207 20.161 59.8774 20.4148C59.5517 20.6648 59.3263 20.9432 59.2013 21.25L57.6047 20.8864C57.7941 20.3561 58.0706 19.928 58.4342 19.6023C58.8017 19.2727 59.224 19.0341 59.7013 18.8864C60.1786 18.7348 60.6804 18.6591 61.207 18.6591C61.5554 18.6591 61.9248 18.7008 62.3149 18.7841C62.7089 18.8636 63.0763 19.0114 63.4172 19.2273C63.7619 19.4432 64.0441 19.7519 64.2638 20.1534C64.4835 20.5511 64.5933 21.0682 64.5933 21.7045V27.5H62.9342V26.3068H62.8661C62.7562 26.5265 62.5914 26.7424 62.3717 26.9545C62.152 27.1667 61.8698 27.3428 61.5251 27.483C61.1804 27.6231 60.7676 27.6932 60.2865 27.6932ZM60.6558 26.3295C61.1255 26.3295 61.527 26.2367 61.8604 26.0511C62.1975 25.8655 62.4532 25.6231 62.6274 25.3239C62.8054 25.0208 62.8945 24.697 62.8945 24.3523V23.2273C62.8339 23.2879 62.7164 23.3447 62.5422 23.3977C62.3717 23.447 62.1767 23.4905 61.957 23.5284C61.7373 23.5625 61.5232 23.5947 61.3149 23.625C61.1066 23.6515 60.9323 23.6742 60.7922 23.6932C60.4626 23.7348 60.1615 23.8049 59.8888 23.9034C59.6198 24.0019 59.4039 24.1439 59.2411 24.3295C59.082 24.5114 59.0024 24.7538 59.0024 25.0568C59.0024 25.4773 59.1577 25.7955 59.4683 26.0114C59.7789 26.2235 60.1748 26.3295 60.6558 26.3295ZM61.9911 17.5682H60.6501L60.6047 16.4091C61.0062 16.3902 61.2903 16.3371 61.457 16.25C61.6236 16.1591 61.7051 16.0284 61.7013 15.858C61.7051 15.6534 61.5895 15.5076 61.3547 15.4205C61.1236 15.3333 60.8414 15.2898 60.5081 15.2898L60.5592 14.3523C61.4191 14.3523 62.0706 14.4886 62.5138 14.7614C62.9607 15.0341 63.1823 15.4015 63.1786 15.8636C63.1823 16.2386 63.0592 16.5152 62.8092 16.6932C62.563 16.8674 62.2903 16.9773 61.9911 17.0227V17.5682ZM66.9361 27.5V18.7727H68.635V27.5H66.9361ZM67.7941 17.4261C67.4986 17.4261 67.2448 17.3277 67.0327 17.1307C66.8244 16.9299 66.7202 16.6913 66.7202 16.4148C66.7202 16.1345 66.8244 15.8958 67.0327 15.6989C67.2448 15.4981 67.4986 15.3977 67.7941 15.3977C68.0895 15.3977 68.3414 15.4981 68.5497 15.6989C68.7619 15.8958 68.8679 16.1345 68.8679 16.4148C68.8679 16.6913 68.7619 16.9299 68.5497 17.1307C68.3414 17.3277 68.0895 17.4261 67.7941 17.4261ZM77.0137 22.3182V27.5H75.3149V18.7727H76.9455V20.1932H77.0535C77.2543 19.7311 77.5686 19.3598 77.9967 19.0795C78.4285 18.7992 78.9721 18.6591 79.6274 18.6591C80.2221 18.6591 80.7429 18.7841 81.1899 19.0341C81.6368 19.2803 81.9834 19.6477 82.2296 20.1364C82.4758 20.625 82.599 21.2292 82.599 21.9489V27.5H80.9001V22.1534C80.9001 21.5208 80.7353 21.0265 80.4058 20.6705C80.0762 20.3106 79.6236 20.1307 79.0478 20.1307C78.6539 20.1307 78.3035 20.2159 77.9967 20.3864C77.6936 20.5568 77.4531 20.8068 77.2751 21.1364C77.1008 21.4621 77.0137 21.8561 77.0137 22.3182ZM88.6165 30.9545C87.9233 30.9545 87.3267 30.8636 86.8267 30.6818C86.3305 30.5 85.9252 30.2595 85.6108 29.9602C85.2964 29.661 85.0615 29.3333 84.9062 28.9773L86.3665 28.375C86.4687 28.5417 86.6051 28.7178 86.7755 28.9034C86.9498 29.0928 87.1846 29.2538 87.4801 29.3864C87.7793 29.5189 88.1638 29.5852 88.6335 29.5852C89.2774 29.5852 89.8096 29.428 90.2301 29.1136C90.6505 28.803 90.8608 28.3068 90.8608 27.625V25.9091H90.7528C90.6505 26.0947 90.5028 26.3011 90.3096 26.5284C90.1202 26.7557 89.8589 26.9527 89.5255 27.1193C89.1922 27.286 88.7585 27.3693 88.2244 27.3693C87.535 27.3693 86.9138 27.2083 86.3608 26.8864C85.8115 26.5606 85.3759 26.0814 85.054 25.4489C84.7358 24.8125 84.5767 24.0303 84.5767 23.1023C84.5767 22.1742 84.7339 21.3788 85.0483 20.7159C85.3665 20.053 85.8021 19.5455 86.3551 19.1932C86.9081 18.8371 87.535 18.6591 88.2358 18.6591C88.7774 18.6591 89.2149 18.75 89.5483 18.9318C89.8816 19.1098 90.1411 19.3182 90.3267 19.5568C90.5161 19.7955 90.6619 20.0057 90.7642 20.1875H90.8892V18.7727H92.554V27.6932C92.554 28.4432 92.3797 29.0587 92.0312 29.5398C91.6827 30.0208 91.2111 30.3769 90.6165 30.608C90.0255 30.839 89.3589 30.9545 88.6165 30.9545ZM88.5994 25.9602C89.088 25.9602 89.5009 25.8466 89.838 25.6193C90.179 25.3883 90.4365 25.0587 90.6108 24.6307C90.7888 24.1989 90.8778 23.6818 90.8778 23.0795C90.8778 22.4924 90.7907 21.9754 90.6165 21.5284C90.4422 21.0814 90.1865 20.733 89.8494 20.483C89.5123 20.2292 89.0956 20.1023 88.5994 20.1023C88.088 20.1023 87.6619 20.2348 87.321 20.5C86.9801 20.7614 86.7225 21.1174 86.5483 21.5682C86.3778 22.0189 86.2926 22.5227 86.2926 23.0795C86.2926 23.6515 86.3797 24.1534 86.554 24.5852C86.7282 25.017 86.9858 25.3542 87.3267 25.5966C87.6714 25.839 88.0956 25.9602 88.5994 25.9602ZM97.4521 27.6932C96.8991 27.6932 96.3991 27.5909 95.9521 27.3864C95.5052 27.178 95.151 26.8769 94.8896 26.483C94.6321 26.089 94.5033 25.6061 94.5033 25.0341C94.5033 24.5417 94.598 24.1364 94.7874 23.8182C94.9768 23.5 95.2324 23.2481 95.5544 23.0625C95.8764 22.8769 96.2362 22.7367 96.6339 22.642C97.0317 22.5473 97.437 22.4754 97.8499 22.4261C98.3726 22.3655 98.7968 22.3163 99.1226 22.2784C99.4483 22.2367 99.6851 22.1705 99.8328 22.0795C99.9805 21.9886 100.054 21.8409 100.054 21.6364V21.5966C100.054 21.1004 99.9143 20.7159 99.6339 20.4432C99.3574 20.1705 98.9446 20.0341 98.3953 20.0341C97.8233 20.0341 97.3726 20.161 97.043 20.4148C96.7173 20.6648 96.4919 20.9432 96.3669 21.25L94.7703 20.8864C94.9597 20.3561 95.2362 19.928 95.5999 19.6023C95.9673 19.2727 96.3896 19.0341 96.8669 18.8864C97.3442 18.7348 97.8461 18.6591 98.3726 18.6591C98.7211 18.6591 99.0904 18.7008 99.4805 18.7841C99.8745 18.8636 100.242 19.0114 100.583 19.2273C100.928 19.4432 101.21 19.7519 101.429 20.1534C101.649 20.5511 101.759 21.0682 101.759 21.7045V27.5H100.1V26.3068H100.032C99.9218 26.5265 99.7571 26.7424 99.5374 26.9545C99.3177 27.1667 99.0355 27.3428 98.6908 27.483C98.3461 27.6231 97.9332 27.6932 97.4521 27.6932ZM97.8214 26.3295C98.2911 26.3295 98.6927 26.2367 99.026 26.0511C99.3631 25.8655 99.6188 25.6231 99.793 25.3239C99.9711 25.0208 100.06 24.697 100.06 24.3523V23.2273C99.9995 23.2879 99.8821 23.3447 99.7078 23.3977C99.5374 23.447 99.3423 23.4905 99.1226 23.5284C98.9029 23.5625 98.6889 23.5947 98.4805 23.625C98.2722 23.6515 98.098 23.6742 97.9578 23.6932C97.6283 23.7348 97.3271 23.8049 97.0544 23.9034C96.7855 24.0019 96.5696 24.1439 96.4067 24.3295C96.2476 24.5114 96.168 24.7538 96.168 25.0568C96.168 25.4773 96.3233 25.7955 96.6339 26.0114C96.9446 26.2235 97.3404 26.3295 97.8214 26.3295ZM104.863 30.7727C104.609 30.7727 104.378 30.7519 104.17 30.7102C103.962 30.6723 103.806 30.6307 103.704 30.5852L104.113 29.1932C104.424 29.2765 104.7 29.3125 104.943 29.3011C105.185 29.2898 105.399 29.1989 105.585 29.0284C105.774 28.858 105.941 28.5795 106.085 28.1932L106.295 27.6136L103.102 18.7727H104.92L107.13 25.5455H107.221L109.431 18.7727H111.255L107.659 28.6648C107.492 29.1193 107.28 29.5038 107.022 29.8182C106.765 30.1364 106.458 30.375 106.102 30.5341C105.746 30.6932 105.333 30.7727 104.863 30.7727Z" fill="#FCFCFC"/>
<defs>
<linearGradient id="paint0_linear_21097_35342" x1="131" y1="43" x2="105.517" y2="-34.6352" gradientUnits="userSpaceOnUse">
<stop stop-color="#1250DC"/>
<stop offset="1" stop-color="#306DE4"/>
</linearGradient>
</defs>
</svg>
