<svg width="289" height="162" viewBox="0 0 289 162" fill="none" xmlns="http://www.w3.org/2000/svg">
<rect width="289" height="162" rx="8" fill="#F6F7F9"/>
<rect x="95.2002" y="31.0212" width="98.6" height="99.9575" rx="6.59091" fill="#E4E8ED"/>
<rect x="105.285" y="41.2476" width="78.4318" height="79.5116" rx="3.95455" fill="white"/>
<path d="M146.727 92.2785C147.1 92.7075 146.801 93.3791 146.238 93.3783L117.942 93.3351C117.377 93.3342 117.075 92.6594 117.448 92.232L131.599 76.0042C131.859 75.7055 132.321 75.707 132.582 76.0074L146.727 92.2785Z" fill="#D9DFE5"/>
<path d="M172.528 92.2944C172.901 92.7232 172.603 93.3951 172.04 93.3946L130.021 93.3634C129.457 93.3629 129.154 92.6875 129.527 92.26L150.55 68.1805C150.81 67.8822 151.271 67.8837 151.532 68.1836L172.528 92.2944Z" fill="#A9B2BE"/>
<path d="M124.666 68.1153C127.357 69.9646 131.019 69.2497 132.845 66.5186C134.672 63.7874 133.971 60.0742 131.28 58.2249C128.589 56.3756 124.927 57.0905 123.1 59.8217C121.274 62.5528 121.975 66.266 124.666 68.1153Z" fill="#A9B2BE"/>
</svg>
